<svg version="1" xmlns="http://www.w3.org/2000/svg" width="682.667" height="682.667" viewBox="0 0 512.000000 512.000000"><path d="M245.9.5c-.2.1-2.3.5-4.7.9-33 4.5-63.6 29.2-76.4 61.6-1.8 4.5-4.8 15.4-5.5 20-.9 5.6-.9 25.1-.1 30.5 2.8 18.2 12.5 38.3 25.2 52.2 8.7 9.6 25.3 20.8 36.5 24.8 2.4.8 4.6 1.3 4.8 1.1.3-.2 1.3-3.6 2.3-7.5l1.8-7.1-8.6-4.2c-4.8-2.2-8.9-4.3-9.2-4.7-.3-.3-2.5-1.9-4.8-3.6-10-6.7-22.1-22.5-27.2-35.5-8.3-21-7.3-46.6 2.6-66.4 11.2-22.3 30.3-37.9 53.9-43.8 34.4-8.6 69.6 5 89.2 34.6 13.3 20.2 17.2 46.8 10.1 69.1-5.3 16.6-15.8 31.8-28.5 41.4-5.9 4.4-17.1 10.6-22.5 12.4-1 .4-1.5 1.3-1.3 2.4.2 1 .9 4.5 1.6 7.8.7 3.3 1.3 6.1 1.4 6.3.3.3 3.9-1.2 12.5-5.1 20.4-9.3 39.5-29.3 48.7-51 17.9-42.3 3.4-92.5-34.2-118.6C296.2 6.1 280.2 1 258.9.4c-7-.1-12.9-.1-13 .1z"/><path d="M302.1 43.6c-3 1.6-8.6 5.9-12.9 10.3-4.2 4.2-8 7.5-8.5 7.3-.5-.1-.6.2-.2.8.3.5-.9 2.9-2.7 5.3-1.9 2.3-4.2 5.4-5 6.8-1.6 2.6-1.6 2.7 2.3 6.5 2.1 2.1 3.9 4.4 3.9 5.2 0 1.9 4-1.1 13.2-10.2 8.6-8.5 14.8-17 17.7-24.3 1-2.6 2-5 2.2-5.3.5-1-2.2-5-3.4-5-.7 0-3.7 1.2-6.6 2.6zM253.4 81c-14.2 3-19.3 21.6-8.6 31.3 1.1 1.1 1.9 2.4 1.7 3-.2.7-.6 5.5-.9 10.8-1.1 19.2-5.6 50.5-8.3 56.9-.3.8-.8 2.4-1 3.5-.8 4.6-5.7 15.8-9.2 21.2-4.9 7.6-15.5 17.2-22.8 20.7-3.2 1.5-6.5 3.2-7.4 3.6-.9.5-3.6 1.4-6 2.1-2.4.7-4.8 1.4-5.4 1.5-3.7 1.1-18.8 4.3-22.5 4.8-2.5.3-5.4.8-6.5 1-1.2.2-4.8.7-8 1.1-3.3.3-8 .8-10.5 1.1-2.5.3-9.1.7-14.7 1-8.9.3-10.4.2-11.5-1.4-2.1-2.9-6.2-5-11-5.7-8.8-1.3-17.6 5-19.6 14-3.7 17.3 17.2 28.4 30.5 16.3 2-1.9 3.1-2 14.7-1.4 6.9.4 13.3.8 14.3 1 1 .2 4.7.7 8.3 1.1 18.9 1.9 40.9 7.4 52.6 13 7.7 3.7 19 13.8 24.1 21.5 4.8 7.2 10.8 24 12.8 36 .3 1.9 1 5.3 1.5 7.5s1.1 6.5 1.4 9.5c.4 3 .8 7.1 1.1 9 .5 3.4.7 5.8 2.1 24.2l.6 8.6-3.1 3.2c-5.2 5.4-6.3 12.7-3.2 19.5 3.3 7.2 8.6 10.5 16.7 10.5 13.1 0 21.1-13.3 15.5-25.5-1-2.2-2.8-4.8-3.9-5.8-1.1-1.1-1.9-2.4-1.7-3 .2-.7.6-5.7.9-11.2.8-14.3 1.5-21.2 4.1-37 7-43.8 22.1-62.8 57.5-72.5 4.1-1.1 9.1-2.3 11-2.6 1.9-.2 5.5-.9 8-1.4 4.1-.8 14.1-2.1 27.5-3.5 2.8-.2 9.2-.7 14.4-1l9.4-.6 3.1 3c7 6.7 17.4 6.4 24.9-.9 3.6-3.6 4-4.5 4.4-10.3.5-5.4.2-7.1-1.7-10.4-5.8-10.4-19.8-12.4-28.6-4.1-1.7 1.5-3.2 2.6-3.5 2.4-.2-.2-5.9-.7-12.6-1.1-6.7-.3-13-.7-14-.9-1-.2-4.3-.6-7.3-1-10.5-1.3-11.8-1.5-20.1-3.1-24.6-4.6-39.5-11.5-50.1-23-4.6-4.9-9.8-13.2-12.4-19.6-4.4-10.9-9.3-33.2-10.9-50.4-.3-3.3-.7-7.4-1-9-.2-1.7-.7-7.9-1-13.8l-.7-10.8 2.7-2.7c9.9-9.9 4.8-26.9-9-30-2.2-.4-5.4-.5-7.1-.2z"/><path d="M231.2 112.3c-10.4 9.8-20.4 20.6-23.1 25.1-4.3 7.1-6.4 13.3-5.6 16.4.5 2.2 1 2.4 4 1.9 6.9-1.1 19.1-11.9 29.7-26 6.2-8.4 6.5-9.2 4.5-10.4-.7-.4-2.6-2.5-4.3-4.5-3.2-4.2-3.3-4.2-5.2-2.5zM87.5 157.2c-37.1 3.9-70.6 31.1-82.4 66.9-7.4 22.5-6.2 48.8 3.1 70.2 4 9.2 12.3 21.7 18.7 28.4 12.6 13.2 31.4 24.1 48.6 28.4 12.7 3.1 33.3 3.2 45.8.1 29.5-7.3 54-27.3 66.7-54.5 2.2-4.7 4-8.9 4-9.3 0-1-10.8-4.4-13.7-4.4-1.2 0-2.8 2.3-5.2 7.3-4.5 9.7-10.6 18.1-18.3 25.2-7.8 7.2-18.6 14.2-24.8 16-.3.1-1.8.7-3.5 1.4-6.1 2.5-16.3 4.3-26.1 4.5-22 .6-41.8-6.9-58.3-22-12-11-22.6-30.8-24.9-46.4-1.3-8.7-.6-26.2 1.2-33.5 2-7.6 9.4-24.5 10.7-24.5.5 0 .9-.5.9-1.1 0-.7 1.7-3.3 3.7-5.8 25.8-31.7 68.9-40.5 104.3-21.4 16 8.7 28.5 22.1 36.1 39l3.1 7 3.7-.8c2-.4 4.7-1 6.1-1.3 5.7-1 6-1.4 4.3-5.4-3.9-9.4-5.9-13.3-10.8-20.7-20.2-30.6-55.9-47.2-93-43.3zM400.5 158.7c-28.3 5.2-50 17.9-65.6 38.6-5.5 7.2-14.9 24.6-14.9 27.4 0 1.1 10.3 4.3 13.6 4.3 1.3 0 2.6-1.6 4.3-5.3 1.3-2.8 2.5-5.5 2.5-5.9.1-.4.7-1.3 1.4-2 .6-.6 1.2-1.7 1.2-2.3.1-3.1 15.6-19.3 23.8-24.8 15.1-10 27.9-13.9 46.2-14 23.6-.1 42.9 7.9 59.4 24.7 7.7 7.8 17 22.4 18.2 28.6 0 .3.5 1.6 1.1 3 3.5 8.4 4.9 27.5 3 39.8-2.4 15.3-11 32.1-22.3 43.6-18.7 18.9-43.9 27.5-70.7 24.2-3.1-.4-6-.8-6.4-.8-.5-.1-4.4-1.4-8.7-3-22.1-7.9-37.3-21.5-47.7-42.5-2.5-5.1-4.8-9.1-5-8.9-.2.2-2.2.7-4.4 1-2.2.4-5.4 1.1-7.2 1.7l-3.1 1 2.3 5.8c11.4 27.9 34.1 49 62.5 58.1 5.2 1.7 6.9 2.1 16.5 3.6 11.3 1.8 29.1.3 41.8-3.6 3.4-1.1 6.5-1.9 6.9-2 1.3-.1 13.9-7 19.6-10.7 12.6-8.4 26-23.9 33.5-38.8 3.1-6.4 7.5-20.1 8.5-26.8 1.3-9.3.6-30.7-1.2-37.7-10.2-38.9-36.8-65.2-75.3-74.6-6.2-1.5-28.6-2.6-33.8-1.7z"/><path d="M43.2 201.1c-1.2.5-2.2 1.6-2.2 2.6 0 2.6 5.3 11.2 10 16.1 2.2 2.4 3.7 4.8 3.4 5.4-.5.7-.2.8.6.3.7-.4 1.5-.4 1.9.1.9 1.3 9.7 8.4 15.1 12.2l4.6 3.2 5-4.8c2.9-2.8 4.6-5.2 4.2-5.8-18.1-20.3-35.1-32.1-42.6-29.3zM356.4 203.4c-2.5 6.6 12.4 24.3 30.6 36.2l4.5 3 4.7-4.7 4.6-4.7-2.6-3.3C390.9 221 373.9 206 371 206c-.6 0-2.1-.7-3.3-1.4-1.2-.8-4.1-1.8-6.4-2.2-3.4-.5-4.4-.3-4.9 1zM119.4 271.4c-.3.8-2.3 2.6-4.5 4.1l-3.9 2.7 1.9 2.7c4 5.5 19.1 19.8 24.5 23 16.2 9.7 23.7 6.7 14.8-6-5.8-8.3-16.7-18.6-26.7-25.2-4.5-3.1-5.4-3.2-6.1-1.3zM432 275.1c-1.9 2-4.2 3.8-5 4.1-2.1.6-.1 3.5 8.8 12.5 13.7 13.9 28 22 33.5 19.1 5.4-2.8-5.2-17.8-21.8-30.9-11.5-9.1-11.4-9-15.5-4.8zM222 320.3c-24.1 9.6-42.3 25.3-53.5 46.1-3.7 6.9-8 17.5-8.9 21.8-2.3 11-2.7 15.3-2.8 24.1-.3 27 10.2 52.7 29.1 71.1 2.7 2.7 4.7 5.4 4.4 5.9-.3.6-.1.7.5.3.6-.4 3.7 1.3 6.9 3.7 22.8 17 50.9 22.2 83.2 15.3 4.8-1.1 16.7-6 22.6-9.4 30.6-17.8 49-48.4 49.9-82.7.7-27.6-7.6-49.9-26.4-70.8-3.3-3.7-19.2-16.7-20.3-16.7-.4 0-2.8-1.3-5.4-2.8-5.2-3-14.2-6.7-14.8-6-.6.6-3.5 12-3.5 13.8 0 1 2.1 2.5 5.5 3.9 9.3 3.9 21.9 12.6 20.8 14.4-.3.6-.1.7.5.3 1.5-.9 11.6 10.6 16.4 18.7 5 8.3 9.6 21.4 10.7 30.4.9 6.9.7 22-.3 26-.3 1.3-.8 3.1-1 4.1-3.5 15.5-13.3 32.4-24.4 42.3-9.4 8.3-23.5 16.1-34.2 18.9-7 1.9-8.8 2.1-19.6 2.5-10 .3-19-.9-28.7-3.9-10.4-3.3-25.7-12.9-32.5-20.5-6.4-7.1-7.6-8.7-10.9-13.8-14.2-22.2-16.6-51-6.3-75.7 8-19.1 21.1-32.9 40.5-42.6 9.8-4.9 9.6-4.5 7.5-12.9-1.6-6.5-2.1-7-5-5.8z"/><path d="M303.6 356.7c-3.7 1-9.1 5-15.9 11.8-6.4 6.4-17.7 20.5-17.7 22.1 0 .3 1.6 2.4 3.5 4.5 1.9 2.2 3.5 4.4 3.5 4.9 0 2.6 3.4.2 12.3-8.5 5.3-5.2 10.9-11.4 12.4-13.7 1.5-2.4 3-4.5 3.3-4.8 1.5-1.4 4.3-9.4 4.4-12.7.1-4-1.2-4.8-5.8-3.6zM226.3 430.2c-13.7 12.3-21.1 21.9-24.4 31.4-6.3 18 14.5 7.3 32.2-16.5 2.7-3.6 5.3-7.2 5.9-7.8.8-.9 0-2.3-3-5.3-2.2-2.2-4-4.5-4-5 0-2-2.1-.9-6.7 3.2z"/></svg>